# xmcd
#
# Track frame offsets:
#	150
#	18738
#	34753
#	51138
#	68757
#	84542
#	100843
#	117140
#	132872
#	145069
#	162510
#	180762
#	197021
#	213187
#	226401
#
# Disc length: 3245 seconds
#
# Revision: 1
# Processed by: cddbd v1.5.2PL0 Copyright (c) Steve Scherf et al.
# Submitted via: audiograbber 1.83.01
#
DISCID=c40cab0f
DTITLE=Audrey Lenders - My greatest hits
DYEAR=1900
DGENRE=Pop
TTITLE0=Audrey Landers - Summernight in rome
TTITLE1=Audrey Landers - Playa blanca
TTITLE2=Audrey Landers - Manuel goodbye
TTITLE3=Audrey Landers - Lucky
TTITLE4=Audrey Landers - Blue bayou
TTITLE5=Audrey Landers - On the beach or monteto bay
TTITLE6=Audrey Landers - Rose garden
TTITLE7=Audrey Landers - Some broken hearts never mend
TTITLE8=Audrey Landers - Tennesee waltz
TTITLE9=Audrey Landers - Honeymoon in trinidad
TTITLE10=Audrey Landers - Banks of the ohio
TTITLE11=Audrey Landers - Hideaway havana
TTITLE12=Audrey Landers - Santa California
TTITLE13=Audrey Landers - Yello rose of texas
TTITLE14=Audrey Landers - Tennessee nights (Mama Chiquita)
EXTD=
EXTT0=
EXTT1=
EXTT2=
EXTT3=
EXTT4=
EXTT5=
EXTT6=
EXTT7=
EXTT8=
EXTT9=
EXTT10=
EXTT11=
EXTT12=
EXTT13=
EXTT14=
PLAYORDER=
